<?xml version="1.0" encoding="utf-8"?>
<!-- Generator: Adobe Illustrator 18.1.1, SVG Export Plug-In . SVG Version: 6.00 Build 0)  -->
<svg version="1.1" id="Layer_1" xmlns="http://www.w3.org/2000/svg" xmlns:xlink="http://www.w3.org/1999/xlink" x="0px" y="0px"
	 viewBox="0 0 128 128" enable-background="new 0 0 128 128" xml:space="preserve">
<linearGradient id="SVGID_1_" gradientUnits="userSpaceOnUse" x1="64.4495" y1="127.6565" x2="64.4495" y2="-0.3435">
	<stop  offset="0" style="stop-color:#E6E6E6;stop-opacity:0"/>
	<stop  offset="1" style="stop-color:#E6E6E6;stop-opacity:0"/>
</linearGradient>
<rect x="0.4" y="-0.3" fill="url(#SVGID_1_)" width="128" height="128"/>
<linearGradient id="SVGID_2_" gradientUnits="userSpaceOnUse" x1="4.4495" y1="63.6565" x2="124.4495" y2="63.6565">
	<stop  offset="0" style="stop-color:#999999"/>
	<stop  offset="2.312434e-02" style="stop-color:#A1A1A1"/>
	<stop  offset="0.237" style="stop-color:#E6E6E6"/>
	<stop  offset="0.4118" style="stop-color:#B3B3B3"/>
</linearGradient>
<path fill="url(#SVGID_2_)" stroke="#000000" stroke-width="0.25" stroke-miterlimit="10" d="M109.4,123.7h-90c-8.2,0-15-6.8-15-15
	v-90c0-8.2,6.8-15,15-15h90c8.2,0,15,6.8,15,15v90C124.4,116.9,117.7,123.7,109.4,123.7z"/>
<linearGradient id="SVGID_3_" gradientUnits="userSpaceOnUse" x1="64.4495" y1="118.6565" x2="64.4495" y2="8.6565">
	<stop  offset="0.1808" style="stop-color:#E6E6E6"/>
	<stop  offset="0.3935" style="stop-color:#B3B3B3"/>
	<stop  offset="0.749" style="stop-color:#E6E6E6"/>
</linearGradient>
<path fill="url(#SVGID_3_)" stroke="#000000" stroke-width="0.25" stroke-miterlimit="10" d="M107.4,118.7h-86c-6.6,0-12-5.4-12-12
	v-86c0-6.6,5.4-12,12-12h86c6.6,0,12,5.4,12,12v86C119.4,113.3,114,118.7,107.4,118.7z"/>
<linearGradient id="SVGID_4_" gradientUnits="userSpaceOnUse" x1="33.5" y1="63.5427" x2="95.5" y2="63.5427">
	<stop  offset="0" style="stop-color:#808080"/>
	<stop  offset="0.4649" style="stop-color:#515151"/>
	<stop  offset="1" style="stop-color:#333333"/>
</linearGradient>
<polygon fill="url(#SVGID_4_)" points="76,40 95.5,40 63.7,12.1 33.5,40 53,40 53,86 33.5,86 64.1,114.9 95.5,86 76,86 "/>
<linearGradient id="SVGID_5_" gradientUnits="userSpaceOnUse" x1="22.9495" y1="55.5" x2="105.9495" y2="55.5">
	<stop  offset="0" style="stop-color:#990000"/>
	<stop  offset="1" style="stop-color:#BB0000"/>
</linearGradient>
<path fill="url(#SVGID_5_)" d="M95.9,66h-63c-5.5,0-10-4.5-10-10v-1c0-5.5,4.5-10,10-10h63c5.5,0,10,4.5,10,10v1
	C105.9,61.5,101.4,66,95.9,66z"/>
</svg>
